<?xml version="1.0" encoding="utf-8"?>
<!-- Generator: Adobe Illustrator 19.2.0, SVG Export Plug-In . SVG Version: 6.00 Build 0)  -->
<svg version="1.1" id="Layer_1" xmlns="http://www.w3.org/2000/svg" xmlns:xlink="http://www.w3.org/1999/xlink" x="0px" y="0px"
	 viewBox="0 0 53 94.8" style="enable-background:new 0 0 53 94.8;" xml:space="preserve">
<style type="text/css">
	.st0{fill:#C32127;}
	.st1{fill:#650813;}
	.st2{fill:#FDFDFE;}
</style>
<g>
	<g>
		<path class="st0" d="M18.6,88c-0.1-1.8-0.8-3.4-1.9-4.8c-2.2-2.9-3.7-6.2-5.4-9.4c-0.5-0.9-0.9-1.7-1.4-2.6
			c-0.1-0.2-0.2-0.3-0.4-0.2c-1.3,2.3-2.7,4.5-3.4,7.1c-0.3,1.2-0.9,2.3-2,3.1c-0.5,0.4-0.8,0.9-0.7,1.6c0,0.5-0.1,0.9-0.3,1.3
			c-0.5,1-1.1,1.9-1.5,3c-0.9,2.5-1.1,5.2-1.7,7.7c4.9,0,9.7,0,14.6,0c0-0.3,0.2-0.5,0.5-0.7c1.5-1.2,3-2.3,4.5-3.4
			C18.7,90,18.6,89,18.6,88z"/>
		<path class="st0" d="M51.4,94.2c-0.5-2.3-0.3-4.7-1.3-6.9c0,0,0-0.1,0-0.1c0-1.5-0.8-2.7-1.8-3.8c-0.3-0.3-0.4-0.6-0.3-1
			c0.2-0.5,0-0.9-0.4-1.2c-0.6-0.4-0.9-1.1-1.1-1.8c-0.4-1.6-1.2-3-1.9-4.4c-0.3,0-0.3,0.3-0.5,0.4c0.1,1.2-0.7,2-1.1,3
			c-0.1,0.2-0.3,0.2-0.5,0.2c-0.7,1.2-1.7,2-2.7,3c-2.1,2-4.2,3.8-6.8,5.2c-0.9,0.5-1.4,0.3-1.6-0.8c-0.4,0.2-0.8,0.4-1.1,0.6
			c-0.6,0.3-1.1,0.2-1.5-0.3c-0.4-0.5-1-0.7-1.5-1.1c-0.3-0.5-0.7-0.8-1.3-0.8c0.4,0.3,0.7,0.7,1.1,1c0.4,0.4,0.7,0.8,1.1,1.1
			c0.6,0.5,0.8,1.2,1,1.9c0.8,0.1,1.5,0.5,2.2,0.9c2.4,1.6,4.5,3.4,6.2,5.7c4.7,0,9.5,0,14.2,0C51.5,94.6,51.5,94.4,51.4,94.2z"/>
		<path class="st0" d="M20.8,85.5c-0.1-0.1-0.2-0.3-0.4-0.2c0.2,1.5,0.4,3,0.5,4.5c0.8-0.2,1.4-0.7,2.1-1c0.1-0.1,0.1-0.2,0-0.4
			C22.3,87.4,21.5,86.4,20.8,85.5z"/>
		<path class="st0" d="M24.3,85.7c-0.2-0.2-0.5-0.5-0.9-0.4c0.7,0.8,1.2,1.7,1.8,2.5c0.1,0.1,0.2,0.1,0.3,0.2
			c0.4-0.1,0.8-0.1,1.3-0.2c0-0.1,0-0.2-0.1-0.3C25.8,86.9,25.1,86.3,24.3,85.7z"/>
		<path class="st0" d="M5.5,43.3c0.8,0.4,1.2,0.9,0.9,1.8c2-0.1,4,0.4,5.9,1c0.7,0.3,1.5,0.5,2.2,0.8c0.5,0.2,0.7,0.5,0.5,1.1
			c-0.4,1.2-0.8,2.4-1.1,3.7c0.1,0.3,0.2,0.7,0.4,1c0.2,0.4,0.2,0.9-0.1,1.4c-0.9,1.4-1.4,2.9-2.1,4.4c0.1,0.8,0.4,1.6,0.8,2.3
			c1.3,2.7,2,5.5,2.9,8.3c0.1,0.3,0.2,0.5,0.3,0.8h0c0,0.1,0,0.3,0.1,0.3c0.4,1,0.8,2,1.4,3h0c0,0.1,0,0.3,0.1,0.3
			c0.1,0.2,0.2,0.4,0.3,0.6c0.3,0.6,0.6,1.3,1.4,1.3c0.5,0,0.9,0,1.4-0.2c0.4,0,0.9-0.1,1.3-0.3v0c0.1,0,0.2,0,0.3-0.1
			c0.2,0,0.4,0,0.7,0c0.3,0.1,0.7,0.2,1,0c0.4,0,0.7-0.1,1-0.3v0c0.1,0,0.3,0,0.3-0.1c0.3-0.1,0.6-0.2,0.9-0.3
			c0.4-0.1,0.8-0.3,1.1,0.1c0.3,0.5,0.3,1,0.1,1.5c-0.1,0.2-0.3,0.3-0.3,0.6c0.4,0,0.8,0,1.1,0c-0.4,0-0.8,0-1.1,0
			c-0.9,0.6-1.8,0.9-2.8,1.1c-0.7,0.2-0.9,0.6-0.8,1.3c0.1,0.4,0.2,0.8,0.5,1.1c0.6,0.6,1.3,1.2,2,1.8c0.3,0.3,0.5,0.2,0.8,0
			c0.8-0.8,1.8-1.3,2.8-1.9c0.8-0.5,1.7-1,2.5-1.5c0.4-0.3,0.7-0.6,0.9-1.1c0.3-0.7,0.1-1.1-0.7-1.4c-0.5-0.3-1.1-0.3-1.6-0.5
			c-0.8-0.3-1.3-0.8-1.5-1.7c-0.1-0.4,0-0.8,0.2-1.2c0.3-0.5,0.8-0.6,1.2-0.2c0.4,0.4,0.8,0.5,1.2,0.5c1.7,0,3.3,0.4,4.9,1.1
			c0.3,0.2,0.7,0.3,1,0.2c0.1-0.8,0.7-1.6,1.4-1.7c0.8-1.8,1.5-3.7,2.2-5.6c0.6-1.7,1.1-3.5,2-5.1c0.1-0.2,0.1-0.5,0.1-0.7
			c-0.2-0.8-0.6-1.6-1-2.4c-0.4-0.8-0.7-1.6-0.2-2.5c0.1-0.3,0.1-0.6,0-0.9c-0.1-0.3-0.2-0.5-0.3-0.8c-0.6-1-0.9-2-0.2-3.1
			c-0.1-1.3-0.9-2.4-1.3-3.7c-0.1-0.4-0.1-0.6,0.3-0.7c2.4-0.8,4.6-1.9,6.8-3.2c0.5-0.3,1-0.5,1.5-0.3c1.1-1,1.1-1.3,0.4-2.6
			c-1.2-2.2-2.4-4.4-3.6-6.5c-1.1-2-2.5-3.8-4.3-5.2c-2.1-1.6-4.3-3-6.7-4.1c0,0-0.1,0.1-0.1,0.1c0.4,0.7,0.2,1.4,0,2.1
			c-0.6,2.1-1.4,4.2-3,5.8c-2.9,2.9-7.7,2.3-9.8-1.2c-0.6-1-1-2.1-1.3-3.2l-3.6-0.7c-1.8,0.9-3.4,2.1-5,3.3c-1.2,0.9-2.2,2-2.8,3.3
			c-0.5,1-1,2.1-1.5,3.1c-0.7,1.5-1.3,3-2.6,4.1C4.5,42.2,4.6,42.9,5.5,43.3z"/>
	</g>
	<path class="st1" d="M36.2,12.8c-0.4,0.4-0.9,0.2-1.4,0.3c-0.3,0.1-0.4-0.2-0.4-0.5c-0.1-0.5-0.3-0.9-0.6-1.3
		c-0.4-0.6-0.6-1.4-0.5-2.1c0.1-1.1-0.1-1.6-1.1-2.1c-1-0.5-2-0.8-3.1-1C27.6,6,26,6.1,24.4,6.3c-0.5,0.1-0.9,0.3-0.9,0.9
		c0,0.7-0.5,1-1.1,1.2c-0.5,0.1-0.7,0.4-0.8,0.9c-0.2,1.5-0.7,2.9-0.9,4.3c0,0.4-0.3,0.5-0.6,0.3c-0.4-0.3-0.8-0.4-1.2-0.6
		c0-0.6-0.1-1.1-0.2-1.6c-0.2-0.6-0.1-1.1,0.1-1.6c0.4-1.2,0.9-2.4,1.3-3.5c0.2-0.4,0.4-0.8,0.8-1.1c0.7-0.5,1.1-1.2,1.4-2
		c0.3-0.8,0.5-1,1.4-0.9c0.9,0.1,1.6,0,2.3-0.6c0.5-0.4,1.1-0.4,1.6-0.2c1.6,0.5,3.2,1.1,4.8,1.7c1.4,0.5,2,1.8,2.6,3.1
		c0.6,1.2,1.2,2.5,0.9,3.9c0,0.2,0,0.4,0.1,0.5C36.5,11.5,36.4,12.1,36.2,12.8z"/>
	<path class="st1" d="M22.1,22.6c0.3,1.2,0.1,2.4-0.6,3.4c-0.5,0.6-0.7,1.2-0.7,2c0,0.2,0,0.4,0,0.6c-0.1,0-0.2,0.1-0.3,0.1
		c-0.5,1.1-1.3,2.1-1.6,3.3c-0.2,0.6,0.1,1.1,0.2,1.7c0.2,1,0.1,2-0.2,2.9c-0.2,0.5-0.2,0.9,0.1,1.4c0.2,0.3,0.3,0.5,0.1,0.8
		c-0.3,0.3-0.5,0.2-0.8,0.1c-2.1-0.7-2.8-3-2.1-4.9c0.1-0.3,0.3-0.7,0.4-1c0.3-0.8,0.6-1.6,0.4-2.5c-0.2-0.8,0.2-1.7,0.3-2.5
		c0.5-0.7,0.9-1.4,1.4-2c0.2-0.3,0.4-0.6,0.7-0.7c0.8-0.3,1.2-0.9,1.6-1.6C21.2,23,21.6,22.7,22.1,22.6z"/>
	<path class="st1" d="M33.1,23.3c-0.5,0.4-0.9,0.9-1.3,1.5c-0.6,1-1.5,1.4-2.6,1.5c-0.9,0.1-1.9,0-2.8,0c-0.6,0-1.1-0.3-1.5-0.8
		c-0.4-0.5-0.8-1-1.3-1.4c-0.6-0.5-1-1.1-1.2-1.9c-0.1-0.2-0.1-0.5-0.3-0.6c-0.3-0.8-0.6-1.6-0.7-2.4c0.3-0.3,0.5-0.1,0.7,0.2
		c0.7,0.9,1.4,1.7,2.2,2.5c0.8,0.7,1.8,1.1,2.9,0.8c0.6-0.1,1.1-0.2,1.7,0c1.4,0.3,3.3-0.6,4-1.8c0.4-0.7,0.8-1.3,1-2
		c0.1-0.2,0.1-0.4,0.3-0.4c0.3,0,0.2,0.3,0.3,0.4C34.6,20.5,34.1,22,33.1,23.3z"/>
	<path class="st1" d="M39.3,72.1c0.2,0,0.5,0,0.7,0.2c1.3,1.1,2.6,2.1,4,3.1c0.1,1.2-0.7,2-1.1,3c-0.1,0.2-0.3,0.2-0.5,0.2
		c-0.2-0.1-0.3-0.3-0.4-0.5c-0.2-0.3-0.4-0.5-0.8-0.6c-0.4-0.1-0.7-0.3-0.8-0.7c-0.2-1.1-0.8-2-1.9-2.5c-0.2-0.1-0.4-0.3-0.5-0.5
		C38.1,73.1,38.7,72.2,39.3,72.1z"/>
	<g>
		<g>
			<path class="st2" d="M41.9,78.1c-0.2-0.3-0.4-0.5-0.8-0.6c-0.4-0.1-0.7-0.3-0.8-0.7c-0.2-1.1-0.8-2-1.9-2.5
				c-0.2-0.1-0.4-0.3-0.5-0.5c-0.4,0.1-0.7,0-1-0.2c-1.5-0.7-3.2-1.1-4.9-1.1c-0.5,0-0.9-0.2-1.2-0.5c-0.4-0.4-0.9-0.4-1.2,0.2
				c-0.2,0.4-0.3,0.8-0.2,1.2c0.2,0.8,0.7,1.4,1.5,1.7c0.5,0.2,1.1,0.2,1.6,0.5c0.8,0.3,1,0.7,0.7,1.4c-0.2,0.5-0.5,0.8-0.9,1.1
				c-0.8,0.5-1.7,1-2.5,1.5c-1,0.6-2,1.1-2.8,1.9c-0.3,0.3-0.5,0.3-0.8,0c-0.7-0.6-1.4-1.2-2-1.8c-0.3-0.3-0.5-0.7-0.5-1.1
				c-0.1-0.7,0.1-1.1,0.8-1.3c1-0.3,2-0.6,2.8-1.1c0-0.2,0.2-0.4,0.3-0.6c0.3-0.5,0.3-1-0.1-1.5c-0.3-0.4-0.7-0.2-1.1-0.1
				c-0.3,0.1-0.6,0.2-0.9,0.3c-0.1,0.1-0.2,0.2-0.3,0.1c-0.3,0.2-0.6,0.3-1,0.3c-0.3,0.1-0.7,0.1-1,0c-0.2,0-0.4,0-0.7,0
				c-0.1,0-0.2,0-0.3,0.1c-0.4,0.2-0.8,0.3-1.3,0.3c-0.4,0.2-0.9,0.2-1.4,0.2c-0.9,0-1.1-0.7-1.4-1.3c-0.2-0.1-0.3-0.3-0.3-0.6
				c-0.1-0.1-0.1-0.2-0.1-0.3c-0.6-0.9-1-2-1.4-3c-0.1-0.1-0.2-0.2-0.1-0.3c-0.1-0.3-0.2-0.5-0.3-0.8c-0.9-2.8-1.6-5.6-2.9-8.3
				c-0.3-0.7-0.7-1.5-0.8-2.3c-0.2-0.6-0.2-1.2,0-1.7c0.6-1.7,1.2-3.4,1.8-5c0.3-1.2,0.7-2.4,1.1-3.7c0.2-0.6,0-0.9-0.5-1.1
				c-0.7-0.3-1.5-0.5-2.2-0.8c-1.9-0.7-3.8-1.1-5.9-1c0,0.1,0,0.3,0,0.4c-0.3,1.9-0.5,3.9-0.6,5.8c-0.1,1.2-0.3,2.4-0.4,3.7
				c-0.2,1.9-0.5,3.7-0.2,5.6c0.5,3,1.7,5.7,3.3,8.2c0.4,0.7,1,1.3,1.1,2.2c0.2-0.1,0.3,0,0.4,0.2c0.5,0.9,0.9,1.7,1.4,2.6
				c1.7,3.2,3.2,6.5,5.4,9.4c1.1,1.4,1.8,3,1.9,4.8c0,1,0.1,2,1,2.7c1.2,0,1.2-0.1,1.3-1c-0.1-1.5-0.3-3-0.5-4.5
				c0.3-0.1,0.3,0.1,0.4,0.2c0.7,1,1.5,1.9,2.2,2.9c0.1,0.2,0.1,0.3,0,0.4c0.3,0,0.5,0.3,0.6,0.5c0.3,0.6,0.9,0.8,1.5,0.7
				c0.6-0.1,0.9-0.6,0.6-1.1c-0.1-0.2-0.3-0.5-0.3-0.8c-0.1-0.1-0.3-0.1-0.3-0.2c-0.6-0.8-1.1-1.7-1.8-2.5c0.5-0.1,0.7,0.2,0.9,0.4
				c0.8,0.6,1.5,1.2,2.3,1.8c0.1,0.1,0.2,0.2,0.1,0.3c0.3,0,0.4,0.2,0.6,0.3c0.6,0.5,1.1,0.5,1.6-0.1c-0.2-0.7-0.3-1.4-1-1.9
				c-0.4-0.3-0.7-0.7-1.1-1.1c-0.4-0.3-0.7-0.7-1.1-1c0.6,0.1,1,0.4,1.3,0.8c0.5,0.4,1.1,0.6,1.5,1.1c0.4,0.5,1,0.6,1.5,0.3
				c0.4-0.2,0.7-0.4,1.1-0.6c0.2,1.1,0.7,1.3,1.6,0.8c2.5-1.4,4.7-3.2,6.8-5.2c1-0.9,2-1.8,2.7-3C42.2,78.4,42,78.3,41.9,78.1z"/>
		</g>
		<g>
			<path class="st2" d="M50.9,53.9c-0.3-1.1-0.4-2.3-0.5-3.5c-0.1-1.6-0.2-3.2-0.6-4.8c-0.2-0.8-0.6-1.6-0.6-2.4
				c-0.6-0.2-1.1,0-1.5,0.3c-2.2,1.2-4.4,2.4-6.8,3.2c-0.4,0.1-0.4,0.3-0.3,0.7c0.4,1.2,1.2,2.3,1.3,3.7c0.6,0.4,0.5,1.1,0.8,1.6
				c0.3,0.6,0.6,1.3,0.9,2c0.9,1.7,1,3.5,0.4,5.2c-0.1,0.3,0,0.7-0.4,0.8c0,0.2,0,0.5-0.1,0.7c-0.9,1.6-1.4,3.4-2,5.1
				c-0.7,1.9-1.4,3.7-2.2,5.6c0.2,0,0.5,0,0.7,0.2c1.3,1.1,2.6,2.1,4,3.1c0.2-0.1,0.2-0.4,0.5-0.4c0-0.1,0-0.3,0.1-0.4
				c1.1-1.7,2.1-3.5,3.1-5.3c1.7-3.1,3.3-6.2,3.5-9.9C51.4,57.5,51.3,55.7,50.9,53.9z"/>
		</g>
		<g>
			<path class="st2" d="M19.2,16.8c0.4,1.1,1,2.1,2.2,2.4c0.3-0.3,0.5-0.1,0.7,0.2c0.7,0.9,1.4,1.7,2.2,2.5c0.8,0.7,1.8,1.1,2.9,0.8
				c0.6-0.1,1.1-0.2,1.7,0c1.4,0.3,3.3-0.6,4-1.8c0.4-0.7,0.8-1.3,1-2c0.1-0.2,0.1-0.4,0.3-0.4c0.3,0,0.2,0.3,0.3,0.4
				c0.4-0.1,0.6-0.4,0.7-0.7c0.3-0.8,0.6-1.6,0.9-2.4c0.4-1,0.6-2-0.1-2.9c-0.4,0.4-0.9,0.2-1.4,0.3c-0.3,0.1-0.4-0.2-0.4-0.5
				c-0.1-0.5-0.3-0.9-0.6-1.3c-0.4-0.6-0.6-1.4-0.5-2.1c0.1-1.1-0.1-1.6-1.1-2.1c-1-0.5-2-0.8-3.1-1C27.6,6,26,6.1,24.4,6.3
				c-0.5,0.1-0.9,0.3-0.9,0.9c0,0.7-0.5,1-1.1,1.2c-0.5,0.1-0.7,0.4-0.8,0.9c-0.2,1.5-0.7,2.9-0.9,4.3c0,0.4-0.3,0.5-0.6,0.3
				c-0.4-0.3-0.8-0.4-1.2-0.6c-0.5,0.5-0.6,1.1-0.3,1.8C18.8,15.7,19,16.3,19.2,16.8z"/>
		</g>
		<g>
			<path class="st2" d="M20.9,27.9c0,0.2,0,0.4,0,0.6c0.3,1.1,0.7,2.2,1.3,3.2c2.1,3.5,6.9,4.1,9.8,1.2c1.6-1.6,2.4-3.6,3-5.8
				c0.2-0.7,0.5-1.4,0-2.1c0,0,0.1-0.1,0.1-0.1c0-0.2-0.1-0.2-0.3-0.2c-0.8-0.1-1.3-0.6-1.6-1.3c-0.5,0.4-0.9,0.9-1.3,1.5
				c-0.6,1-1.5,1.4-2.6,1.5c-0.9,0.1-1.9,0-2.8,0c-0.6,0-1.1-0.3-1.5-0.8c-0.4-0.5-0.8-1-1.3-1.4c-0.6-0.5-1-1.1-1.2-1.9
				c-0.1-0.2-0.1-0.5-0.3-0.6c0,0.3,0,0.6,0,0.9c0.3,1.2,0.1,2.4-0.6,3.4C21,26.6,20.8,27.2,20.9,27.9z"/>
		</g>
	</g>
</g>
</svg>
