<svg width="149" height="266" viewBox="0 0 149 266" version="1.1" xmlns="http://www.w3.org/2000/svg" xmlns:xlink="http://www.w3.org/1999/xlink">
<g id="Canvas" fill="none">
<g id="Frame 3.1" clip-path="url(#clip0)">
<g id="logo">
<g id="Group">
<g id="Group_2">
<g id="Vector">
<path d="M 53.686 48.7454C 53.3989 43.596 51.3892 39.0188 48.2312 35.0137C 41.9152 26.7174 37.6089 17.2769 32.7283 8.12241C 31.2929 5.54772 30.1445 3.25908 28.7091 0.684376C 28.422 0.112221 28.1349 -0.173848 27.5607 0.11223C 23.8285 6.69202 19.8093 12.9857 17.7996 20.4237C 16.9384 23.8567 15.2158 27.0035 12.0578 29.2921C 10.6224 30.4365 9.76108 31.8669 10.0482 33.8694C 10.0482 35.2998 9.76108 36.4441 9.1869 37.5884C 7.75145 40.4492 6.02891 43.0239 4.88054 46.1707C 2.29673 53.3227 1.72254 61.0468 -4.27799e-09 68.1987C 14.0674 68.1987 27.8478 68.1987 41.9152 68.1987C 41.9152 67.3405 42.4894 66.7683 43.3507 66.1962C 47.6571 62.7632 51.9634 59.6164 56.2698 56.4695C 53.9731 54.467 53.686 51.6062 53.686 48.7454Z" transform="translate(0 197.229)" fill="#C32127"/>
</g>
<g id="Vector_2">
<path d="M 72.9211 54.9269C 71.4856 48.3471 72.0598 41.4813 69.1889 35.1876L 69.1889 34.9015C 69.1889 30.6103 66.8921 27.1774 64.0212 24.0305C 63.16 23.1723 62.8729 22.3141 63.16 21.1698C 63.7341 19.7394 63.16 18.595 62.0116 17.7368C 60.2891 16.5925 59.4278 14.59 58.8536 12.5874C 57.7052 8.01018 55.4085 4.00509 53.3989 0C 52.5376 0 52.5376 0.858238 51.9634 1.14432C 52.2505 4.57725 49.9538 6.86587 48.8054 9.72665C 48.5183 10.2988 47.9442 10.2988 47.37 10.2988C 45.3603 13.7317 42.4894 16.0203 39.6185 18.8811C 33.5896 24.6027 27.5607 29.7521 20.0964 33.7572C 17.5125 35.1876 16.0771 34.6154 15.5029 31.4685C 14.3545 32.0407 13.2062 32.6129 12.3449 33.185C 10.6224 34.0432 9.1869 33.7572 8.03854 32.3268C 6.89018 30.8964 5.16763 30.3242 3.73218 29.1799C 2.87091 27.7495 1.72254 26.8913 0 26.8913C 1.14836 27.7495 2.00964 28.8939 3.158 29.7521C 4.30636 30.8964 5.16764 32.0407 6.316 32.8989C 8.03854 34.3293 8.61272 36.3319 9.18691 38.3344C 11.4836 38.6205 13.4933 39.7648 15.5029 40.9091C 22.3931 45.4864 28.422 50.6358 33.3025 57.2155C 46.7958 57.2155 60.5761 57.2155 74.0694 57.2155C 73.2081 56.0712 73.2081 55.4991 72.9211 54.9269Z" transform="translate(74.9307 208.784)" fill="#C32127"/>
</g>
<g id="Vector_3">
<path d="M 1.14836 0.650124C 0.86127 0.364046 0.57418 -0.208101 -1.09516e-06 0.0779771C 0.57418 4.36914 1.14836 8.66031 1.43545 12.9515C 3.73218 12.3793 5.45472 10.9489 7.46436 10.0907C 7.75145 9.80462 7.75145 9.51854 7.46436 8.94638C 5.45472 6.0856 3.158 3.22482 1.14836 0.650124Z" transform="translate(58.8536 238.173)" fill="#C32127"/>
</g>
<g id="Vector_4">
<path d="M 2.58381 1.20113C 2.00963 0.62897 1.14836 -0.229245 -1.09516e-06 0.0568323C 2.00963 2.34545 3.44509 4.92015 5.16763 7.20878C 5.45473 7.49485 5.74181 7.49484 6.0289 7.78092C 7.17727 7.49484 8.32563 7.49485 9.76108 7.20878C 9.76108 6.9227 9.76109 6.63661 9.474 6.35053C 6.89018 4.63407 4.88054 2.91759 2.58381 1.20113Z" transform="translate(67.4659 238.194)" fill="#C32127"/>
</g>
<g id="Vector_5">
<path d="M 2.1801 52.9244C 4.47682 54.0687 5.62518 55.4991 4.76391 58.0738C 10.5057 57.7877 16.2475 59.2181 21.7023 60.9345C 23.7119 61.7928 26.0086 62.3649 28.0183 63.2232C 29.4537 63.7953 30.0279 64.6536 29.4537 66.37C 28.3054 69.803 27.157 73.2359 26.2957 76.9549C 26.5828 77.8131 26.8699 78.9574 27.4441 79.8157C 28.0183 80.96 28.0183 82.3904 27.157 83.8208C 24.5732 87.8258 23.1377 92.117 21.1281 96.4082C 21.4152 98.6968 22.2764 100.985 23.4248 102.988C 27.157 110.712 29.1666 118.722 31.7504 126.732C 32.0375 127.591 32.3246 128.163 32.6117 129.021C 32.6117 129.307 32.6117 129.879 32.8988 129.879C 34.0472 132.74 35.1955 135.601 36.9181 138.462C 36.9181 138.748 36.9181 139.32 37.2052 139.32C 37.4923 139.892 37.7793 140.464 38.0664 141.036C 38.9277 142.753 39.789 144.755 42.0857 144.755C 43.5212 144.755 44.6695 144.755 46.105 144.183C 47.2533 144.183 48.6888 143.897 49.8372 143.325C 50.1243 143.325 50.4113 143.325 50.6984 143.039C 51.2726 143.039 51.8468 143.039 52.7081 143.039C 53.5693 143.325 54.7177 143.611 55.579 143.039C 56.7273 143.039 57.5886 142.753 58.4499 142.181C 58.737 142.181 59.3112 142.181 59.3112 141.895C 60.1724 141.608 61.0337 141.322 61.895 141.036C 63.0433 140.75 64.1917 140.178 65.053 141.322C 65.9142 142.753 65.9142 144.183 65.3401 145.614C 65.053 146.186 64.4788 146.472 64.4788 147.33C 65.6272 147.33 66.7755 147.33 67.6368 147.33C 66.4884 147.33 65.3401 147.33 64.4788 147.33C 61.895 149.046 59.3112 149.905 56.4402 150.477C 54.4306 151.049 53.8564 152.193 54.1435 154.196C 54.4306 155.34 54.7177 156.485 55.579 157.343C 57.3015 159.059 59.3112 160.776 61.3208 162.492C 62.1821 163.35 62.7562 163.064 63.6175 162.492C 65.9142 160.204 68.7852 158.773 71.6561 157.057C 73.9528 155.626 76.5366 154.196 78.8333 152.765C 79.9817 151.907 80.843 151.049 81.4171 149.619C 82.2784 147.616 81.7042 146.472 79.4075 145.614C 77.9721 144.755 76.2495 144.755 74.8141 144.183C 72.5173 143.325 71.0819 141.895 70.5077 139.32C 70.2206 138.176 70.5077 137.031 71.0819 135.887C 71.9431 134.457 73.3786 134.17 74.527 135.315C 75.6753 136.459 76.8237 136.745 77.9721 136.745C 82.8526 136.745 87.4461 137.889 92.0395 139.892C 92.9008 140.464 94.0491 140.75 94.9104 140.464C 95.1975 138.176 96.9201 135.887 98.9297 135.601C 101.226 130.451 103.236 125.016 105.246 119.58C 106.968 114.717 108.404 109.568 110.988 104.991C 111.275 104.418 111.275 103.56 111.275 102.988C 110.7 100.699 109.552 98.4107 108.404 96.1221C 107.255 93.8335 106.394 91.5449 107.829 88.9702C 108.117 88.1119 108.117 87.2537 107.829 86.3955C 107.542 85.5372 107.255 84.9651 106.968 84.1068C 105.246 81.2461 104.384 78.3853 106.394 75.2384C 106.107 71.5194 103.81 68.3726 102.662 64.6536C 102.375 63.5093 102.375 62.9371 103.523 62.651C 110.413 60.3624 116.729 57.2155 123.045 53.4965C 124.481 52.6383 125.916 52.0661 127.352 52.6383C 130.51 49.7775 130.51 48.9193 128.5 45.2003C 125.055 38.9066 121.61 32.6129 118.165 26.6052C 115.007 20.8837 110.987 15.7343 105.82 11.7292C 99.791 7.15194 93.475 3.14685 86.5848 -2.1826e-06L 86.2977 0.286077C 87.446 2.28862 86.8719 4.29117 86.2977 6.29371C 84.5751 12.3013 82.2784 18.309 77.685 22.8862C 69.3593 31.1825 55.579 29.466 49.5501 19.4533C 47.8275 16.5925 46.6792 13.4457 45.8179 10.2988L 35.4826 8.29626C 30.315 10.871 25.7215 14.3039 21.1281 17.7368C 17.683 20.3115 14.8121 23.4584 13.0895 27.1774C 11.6541 30.0382 10.2186 33.185 8.78318 36.0458C 6.77355 40.337 5.051 44.6281 1.31882 47.775C -0.690813 49.7775 -0.403721 51.7801 2.1801 52.9244Z" transform="translate(13.897 65.1736)" fill="#C32127"/>
</g>
</g>
<g id="Vector_6">
<path d="M 50.5539 31.8444C 49.4055 32.9887 47.97 32.4165 46.5346 32.7026C 45.6733 32.9887 45.3862 32.1305 45.3862 31.2722C 45.0991 29.8418 44.5249 28.6975 43.6637 27.5532C 42.5153 25.8367 41.9411 23.5481 42.2282 21.5456C 42.5153 18.3987 41.9411 16.9683 39.0702 15.5379C 36.1993 14.1076 33.3284 13.2493 30.1704 12.6772C 25.8641 12.3911 21.2706 12.6772 16.6771 13.2493C 15.2417 13.5354 14.0933 14.1076 14.0933 15.824C 14.0933 17.8266 12.6579 18.6848 10.9353 19.257C 9.49988 19.543 8.9257 20.4013 8.63861 21.8317C 8.06443 26.1228 6.62898 30.1279 6.05479 34.133C 6.05479 35.2773 5.19352 35.5634 4.33225 34.9912C 3.18389 34.133 2.03552 33.8469 0.887158 33.2748C 0.887158 31.5583 0.600071 30.1279 0.31298 28.6975C -0.261202 26.9811 0.0258848 25.5507 0.600066 24.1203C 1.74843 20.6873 3.18389 17.2544 4.33225 14.1076C 4.90643 12.9632 5.48061 11.8189 6.62897 10.9607C 8.63861 9.53031 9.78697 7.52777 10.6482 5.23914C 11.5095 2.95052 12.0837 2.37837 14.6675 2.66444C 17.2513 2.95052 19.261 2.66444 21.2706 0.947978C 22.7061 -0.196333 24.4286 -0.196333 25.8641 0.375823C 30.4575 1.80621 35.051 3.52268 39.6444 5.23914C 43.6637 6.66953 45.3862 10.3885 47.1088 14.1076C 48.8313 17.5405 50.5539 21.2595 49.6926 25.2646C 49.6926 25.8367 49.6926 26.4089 49.9797 26.695C 51.4151 28.1254 51.128 29.8418 50.5539 31.8444Z" transform="translate(53.6603 -1)" fill="#650813"/>
</g>
<g id="Vector_7">
<path d="M 17.692 1.0913e-06C 18.5532 3.43293 17.9791 6.86586 15.9694 9.72664C 14.534 11.4431 13.9598 13.1596 13.9598 15.4482C 13.9598 16.0204 13.9598 16.5925 13.9598 17.1647C 13.6727 17.1647 13.3856 17.4507 13.0985 17.4507C 11.6631 20.5976 9.36633 23.4584 8.50506 26.8913C 7.93088 28.6078 8.79215 30.0382 9.07924 31.7546C 9.65343 34.6154 9.36633 37.4762 8.50506 40.0509C 7.93088 41.4813 7.93088 42.6256 8.79215 44.056C 9.36633 44.9142 9.65343 45.4863 9.07924 46.3446C 8.21797 47.2028 7.64379 46.9167 6.78252 46.6307C 0.753611 44.6281 -1.25602 38.0483 0.753615 32.6129C 1.04071 31.7546 1.61489 30.6103 1.90198 29.7521C 2.76325 27.4635 3.62452 25.1748 3.05034 22.6001C 2.47616 20.3115 3.62452 17.7368 3.91161 15.4482C 5.34706 13.4457 6.49543 11.4431 7.93088 9.72664C 8.50506 8.86841 9.07924 8.01017 9.94051 7.7241C 12.2372 6.86586 13.3856 5.1494 14.534 3.14686C 15.1081 1.14431 16.2565 0.286079 17.692 1.0913e-06Z" transform="translate(46.0425 58.8799)" fill="#650813"/>
</g>
<g id="Vector_8">
<path d="M 33.5896 13.7317C 32.1542 14.876 31.0058 16.3064 29.8574 18.0229C 28.1349 20.8837 25.5511 22.028 22.3931 22.3141C 19.8093 22.6001 16.9384 22.3141 14.3545 22.3141C 12.632 22.3141 11.1965 21.4558 10.0482 20.0254C 8.89981 18.5951 7.75145 17.1647 6.316 16.0204C 4.59345 14.59 3.44509 12.8735 2.87091 10.5849C 2.58382 10.0127 2.58382 9.15449 2.00964 8.86841C 1.14836 6.57979 0.28709 4.29117 -1.09516e-06 2.00255C 0.861271 1.14431 1.43545 1.71647 2.00964 2.5747C 4.01927 5.1494 6.0289 7.43802 8.32563 9.72664C 10.6224 11.7292 13.4933 12.8735 16.6513 12.0153C 18.3738 11.7292 19.8093 11.4431 21.5318 12.0153C 25.5511 12.8735 31.0058 10.2988 33.0154 6.86587C 34.1638 4.86332 35.3122 3.14685 35.8863 1.14431C 36.1734 0.572154 36.1734 0 36.7476 0C 37.6089 0 37.3218 0.858232 37.6089 1.14431C 37.896 5.72155 36.4605 10.0127 33.5896 13.7317Z" transform="translate(61.7242 47.1514)" fill="#650813"/>
</g>
<g id="Vector_9">
<path d="M 3.73218 -4.3652e-06C 4.30636 -4.3652e-06 5.16763 8.73892e-06 5.74181 0.572164C 9.47399 3.71902 13.2062 6.57979 17.2254 9.44057C 17.5125 12.8735 15.2158 15.1621 14.0674 18.0229C 13.7804 18.5951 13.2062 18.595 12.632 18.595C 12.0578 18.309 11.7707 17.7368 11.4836 17.1647C 10.9094 16.3064 10.3353 15.7343 9.1869 15.4482C 8.03854 15.1621 7.17727 14.59 6.89018 13.4457C 6.316 10.2988 4.59345 7.72411 1.43545 6.29372C 0.861272 6.00764 0.287091 5.43549 0 4.86333C 0.287091 2.86079 2.00963 0.286073 3.73218 -4.3652e-06Z" transform="translate(109.381 200.489)" fill="#650813"/>
</g>
<g id="Group_3">
<g id="Group_4">
<g id="Vector_10">
<path d="M 105.44 94.4492C 104.865 93.5909 104.291 93.0188 103.143 92.7327C 101.994 92.4466 101.133 91.8745 100.846 90.7302C 100.272 87.5833 98.5494 85.0086 95.3914 83.5782C 94.8172 83.2921 94.243 82.72 93.9559 82.1478C 92.8076 82.4339 91.9463 82.1478 91.085 81.5757C 86.7787 79.5731 81.8981 78.4288 77.0176 78.4288C 75.5821 78.4288 74.4338 77.8566 73.5725 76.9984C 72.4241 75.8541 70.9887 75.8541 70.1274 77.5706C 69.5532 78.7149 69.2661 79.8592 69.5532 81.0035C 70.1274 83.2921 71.5629 85.0086 73.8596 85.8668C 75.295 86.439 77.0176 86.439 78.453 87.2972C 80.7498 88.1554 81.324 89.2998 80.4627 91.3023C 79.8885 92.7327 79.0272 93.5909 77.8789 94.4492C 75.5821 95.8795 72.9983 97.3099 70.7016 98.7403C 67.8307 100.457 64.9598 101.887 62.6631 104.176C 61.8018 105.034 61.2276 105.034 60.3663 104.176C 58.3567 102.459 56.3471 100.743 54.6245 99.0264C 53.7632 98.1682 53.1891 97.0239 53.1891 95.8795C 52.902 93.877 53.4761 92.7327 55.4858 92.1605C 58.3567 91.3023 61.2276 90.4441 63.5243 89.0137C 63.5243 88.4415 64.0985 87.8694 64.3856 87.2972C 65.2469 85.8668 65.2469 84.4364 64.0985 83.006C 63.2372 81.8617 62.0889 82.4339 60.9405 82.72C 60.0792 83.006 59.218 83.2921 58.3567 83.5782C 58.0696 83.8643 57.7825 84.1504 57.4954 83.8643C 56.6341 84.4364 55.7729 84.7225 54.6245 84.7225C 53.7632 85.0086 52.6149 85.0086 51.7536 84.7225C 51.1794 84.7225 50.6052 84.7225 49.744 84.7225C 49.4569 84.7225 49.1698 84.7225 48.8827 85.0086C 47.7343 85.5808 46.586 85.8668 45.1505 85.8668C 44.0022 86.439 42.5667 86.439 41.1312 86.439C 38.5474 86.439 37.9733 84.4364 37.112 82.72C 36.5378 82.4339 36.2507 81.8617 36.2507 81.0035C 35.9636 80.7174 35.9636 80.4313 35.9636 80.1453C 34.2411 77.5706 33.0927 74.4237 31.9443 71.5629C 31.6573 71.2769 31.3702 70.9908 31.6573 70.7047C 31.3702 69.8465 31.0831 69.2743 30.796 68.4161C 28.2122 60.4059 26.2025 52.3957 22.4704 44.6716C 21.6091 42.6691 20.4607 40.3805 20.1736 38.0918C 19.5994 36.3754 19.5994 34.6589 20.1736 33.2285C 21.8962 28.3652 23.6187 23.5019 25.3413 18.9246C 26.2025 15.4917 27.3509 12.0588 28.4993 8.33976C 29.0734 6.62329 28.4993 5.76506 27.0638 5.19291C 25.0542 4.33467 22.7574 3.76251 20.7478 2.90427C 15.2931 0.90173 9.83836 -0.24258 3.80946 0.0434973C 3.80946 0.329575 3.80946 0.901735 3.80946 1.18781C 2.94818 6.62329 2.374 12.3448 2.08691 17.7803C 1.79982 21.2133 1.22564 24.6462 0.938549 28.3652C 0.364368 33.8007 -0.496904 38.9501 0.364368 44.3855C 1.79982 52.9679 5.24491 60.692 9.83836 67.8439C 10.9867 69.8465 12.7093 71.5629 12.9964 74.1376C 13.5705 73.8516 13.8576 74.1376 14.1447 74.7098C 15.5802 77.2845 16.7285 79.5731 18.164 82.1478C 23.0445 91.3023 27.3509 100.743 33.6669 109.039C 36.8249 113.044 38.8345 117.621 39.1216 122.771C 39.1216 125.632 39.4087 128.492 41.9925 130.495C 45.4376 130.495 45.4376 130.209 45.7247 127.634C 45.4376 123.343 44.8634 119.052 44.2892 114.761C 45.1505 114.475 45.1505 115.047 45.4376 115.333C 47.4472 118.194 49.744 120.768 51.7536 123.629C 52.0407 124.201 52.0407 124.487 51.7536 124.773C 52.6149 124.773 53.1891 125.632 53.4761 126.204C 54.3374 127.92 56.06 128.492 57.7825 128.206C 59.5051 127.92 60.3663 126.49 59.5051 125.059C 59.218 124.487 58.6438 123.629 58.6438 122.771C 58.3567 122.485 57.7825 122.485 57.7825 122.199C 56.06 119.91 54.6245 117.335 52.6149 115.047C 54.0503 114.761 54.6245 115.619 55.1987 116.191C 57.4954 117.908 59.5051 119.624 61.8018 121.34C 62.0889 121.627 62.376 121.913 62.0889 122.199C 62.9501 122.199 63.2372 122.771 63.8114 123.057C 65.534 124.487 66.9694 124.487 68.4049 122.771C 67.8307 120.768 67.5436 118.766 65.534 117.335C 64.3856 116.477 63.5243 115.333 62.376 114.189C 61.2276 113.33 60.3663 112.186 59.218 111.328C 60.9405 111.614 62.0889 112.472 62.9501 113.616C 64.3856 114.761 66.1081 115.333 67.2565 116.763C 68.4049 118.194 70.1274 118.48 71.5629 117.621C 72.7112 117.049 73.5725 116.477 74.7209 115.905C 75.295 119.052 76.7305 119.624 79.3143 118.194C 86.4916 114.189 92.8076 109.039 98.8365 103.318C 101.707 100.743 104.578 98.1682 106.588 94.7352C 106.301 95.3074 105.727 95.0213 105.44 94.4492Z" transform="translate(15.139 123.204)" fill="#FDFDFE"/>
</g>
</g>
<g id="Group_5">
<g id="Vector_11">
<path d="M 33.3025 30.8406C 32.4413 27.6938 32.1542 24.2608 31.8671 20.8279C 31.58 16.2507 31.2929 11.6734 30.1445 7.09617C 29.5703 4.80755 28.422 2.51893 28.422 0.230312C 26.6994 -0.341843 25.264 0.23031 24.1156 1.08854C 17.7996 4.52148 11.4836 7.95441 4.59346 10.243C 3.44509 10.5291 3.44508 11.1013 3.73217 12.2456C 4.88054 15.6785 7.17727 18.8254 7.46436 22.8304C 9.18691 23.9748 8.89981 25.9773 9.76109 27.4077C 10.6224 29.1242 11.4836 31.1267 12.3449 33.1293C 14.9287 37.9926 15.2158 43.142 13.4933 48.0053C 13.2062 48.8635 13.4933 50.0078 12.3449 50.2939C 12.3449 50.8661 12.3449 51.7243 12.0578 52.2965C 9.47399 56.8737 8.03854 62.0231 6.316 66.8864C 4.30636 72.3219 2.29672 77.4713 -2.19033e-06 82.9068C 0.574179 82.9068 1.43545 82.9068 2.00963 83.4789C 5.74181 86.6258 9.47399 89.4866 13.4933 92.3473C 14.0674 92.0613 14.0674 91.203 14.9287 91.203C 14.9287 90.9169 14.9287 90.3448 15.2158 90.0587C 18.3738 85.1954 21.2447 80.046 24.1156 74.8966C 28.9962 66.0282 33.5896 57.1598 34.1638 46.5749C 34.738 41.1394 34.4509 35.99 33.3025 30.8406Z" transform="translate(113.115 117.582)" fill="#FDFDFE"/>
</g>
</g>
<g id="Group_6">
<g id="Vector_12">
<path d="M 2.20701 30.6361C 3.35538 33.783 5.07792 36.6437 8.523 37.502C 9.38428 36.6437 9.95846 37.2159 10.5326 38.0741C 12.5423 40.6488 14.5519 42.9375 16.8486 45.2261C 19.1454 47.2286 22.0163 48.3729 25.1743 47.5147C 26.8968 47.2286 28.3323 46.9425 30.0548 47.5147C 34.0741 48.3729 39.5288 45.7982 41.5384 42.3653C 42.6868 40.3628 43.8352 38.6463 44.4094 36.6437C 44.6964 36.0716 44.6964 35.4994 45.2706 35.4994C 46.1319 35.4994 45.8448 36.3577 46.1319 36.6437C 47.2803 36.3577 47.8544 35.4994 48.1415 34.6412C 49.0028 32.3526 49.8641 30.064 50.7253 27.7753C 51.8737 24.9146 52.4479 22.0538 50.4383 19.4791C 49.2899 20.6234 47.8544 20.0512 46.419 20.3373C 45.5577 20.6234 45.2706 19.7652 45.2706 18.9069C 44.9835 17.4765 44.4093 16.3322 43.5481 15.1879C 42.3997 13.4714 41.8255 11.1828 42.1126 9.18028C 42.3997 6.03343 41.8255 4.60304 38.9546 3.17265C 36.0837 1.74226 33.2128 0.884028 30.0548 0.311873C 26.3226 -0.260283 21.7292 0.0257962 17.1357 0.597952C 15.7003 0.884029 14.5519 1.45618 14.5519 3.17265C 14.5519 5.17519 13.1165 6.03343 11.3939 6.60558C 9.95846 6.89166 9.38428 7.74989 9.09719 9.18028C 8.52301 13.4714 7.08755 17.4765 6.51337 21.4816C 6.51337 22.6259 5.6521 22.912 4.79083 22.3399C 3.64246 21.4816 2.4941 21.1955 1.34574 20.6234C -0.089717 22.0538 -0.376806 23.7702 0.484467 25.7728C 1.05865 27.4893 1.63283 29.2057 2.20701 30.6361Z" transform="translate(53.2006 11.6515)" fill="#FDFDFE"/>
</g>
</g>
<g id="Group_7">
<g id="Vector_13">
<path d="M 0.070495 17.7368C 0.070495 18.309 0.070495 18.8811 0.070495 19.4533C 0.931767 22.6001 2.08013 25.747 3.80268 28.6078C 9.83158 38.6205 23.6119 40.337 31.9376 32.0407C 36.531 27.4635 38.8277 21.7419 40.5503 15.4482C 41.1245 13.4457 41.9857 11.4431 40.5503 9.44056L 40.8374 9.15449C 40.8374 8.58233 40.5503 8.58233 39.9761 8.58233C 37.6794 8.29626 36.2439 6.86586 35.3827 4.86332C 33.9472 6.00763 32.7988 7.43802 31.6505 9.15449C 29.9279 12.0153 27.3441 13.1596 24.1861 13.4457C 21.6023 13.7317 18.7314 13.4457 16.1476 13.4457C 14.425 13.4457 12.9896 12.5874 11.8412 11.157C 10.6929 9.72664 9.54449 8.29626 8.10904 7.15194C 6.38649 5.72156 5.23813 4.00509 4.66395 1.71646C 4.37686 1.14431 4.37686 0.28608 3.80268 2.1826e-06C 3.80268 0.858235 3.80268 1.71647 3.80268 2.5747C 4.66395 6.00763 4.08977 9.44057 2.08013 12.3013C 0.357588 14.0178 -0.216596 15.7343 0.070495 17.7368Z" transform="translate(60.2175 56.3051)" fill="#FDFDFE"/>
</g>
</g>
</g>
</g>
</g>
</g>
</g>
<defs>

<clipPath id="clip0">
<rect width="149" height="266" fill="white"/>
</clipPath>

</defs>
</svg>

