<svg width="321" height="300" viewBox="0 0 321 300" version="1.1" xmlns="http://www.w3.org/2000/svg" xmlns:xlink="http://www.w3.org/1999/xlink">
<g id="Canvas" fill="none">
<g id="Frame 4" clip-path="url(#clip0)">
<g id="logo-01">
<g id="Canvas_2">
<g id="logo">
<g id="Group">
<path id="Ellipse" d="M 145 290C 225.081 290 290 225.081 290 145C 290 64.9187 225.081 0 145 0C 64.9187 0 0 64.9187 0 145C 0 225.081 64.9187 290 145 290Z" transform="translate(15.225 5)" fill="url(#paint0_linear)"/>
<g id="Group 2">
<path id="Intersect" d="M 117.616 28.4263C 119.38 28.519 121.515 29.2608 122.165 31.8571C 122.443 32.8771 122.722 34.1753 123 35.5661C 123 35.937 122.907 36.4007 122.814 36.7716C 122.721 37.7916 122.536 38.8115 122.814 39.8315C 123.186 41.5006 122.35 42.8914 120.958 43.4478C 120.401 43.726 119.937 43.9114 119.38 44.0969C 119.194 44.1896 118.915 44.2823 118.73 44.375C 118.451 44.4678 118.173 44.6532 117.894 44.7459C 119.844 46.9713 119.472 48.3622 116.873 49.3822C 109.818 52.2567 102.392 53.833 94.7796 54.9457C 91.2521 55.5021 87.8174 56.1512 84.197 55.5948C 84.6611 55.5948 84.754 55.1312 84.5683 54.5748C 84.2898 53.6476 84.197 52.9058 84.6611 51.8858C 85.1253 50.8658 85.2181 49.9386 84.5683 49.104C 82.6189 46.8786 81.7834 44.0969 82.526 41.0369C 82.6189 40.4806 82.526 39.7388 82.3404 39.1824C 83.1759 38.5333 83.5472 37.6988 83.5472 36.7716C 84.5683 32.5062 86.6106 28.3336 89.3955 24.7173C 90.2309 23.6973 90.5094 22.4919 90.3238 21.3792C 90.1381 19.8956 90.9736 18.8756 92.7374 19.2465C 93.9441 19.5247 94.8724 19.9883 95.5223 20.8228C 96.8219 22.5846 97.286 24.6246 96.5434 26.7572C 96.3577 27.3136 96.0793 27.87 95.8008 28.4263C 95.4294 29.2608 94.9653 30.0026 94.8725 30.9299C 94.1298 33.0626 94.6868 34.1753 96.6362 34.7316C 98.0287 35.1025 99.1427 35.0098 100.442 34.6389C 101.649 34.1753 102.856 33.7116 104.063 33.248C 105.269 32.7844 106.476 32.3208 107.683 31.8571C 108.24 31.6717 108.797 31.3935 109.354 31.2081C 111.675 30.2808 113.903 29.4463 116.316 29.1681C 117.059 29.0754 117.43 28.8899 117.616 28.4263ZM 12.9034 26.3864C 15.2241 28.6118 17.5449 30.7444 19.3087 33.248C 22.3721 37.0497 25.8996 40.2951 30.2626 42.9842C 38.246 48.7331 47.3434 50.4949 56.6264 52.0712C 62.0106 52.9985 67.3947 53.833 72.7789 54.3894C 73.1502 54.3894 73.5215 54.6676 73.8 54.853C 74.0785 54.4821 74.4498 54.4821 74.8211 54.5748C 75.0068 54.5748 75.2853 54.5748 75.4709 54.4821C 75.7494 49.9386 75.8423 45.5805 75.6566 41.0369C 75.5638 40.2951 76.0279 39.6461 76.3992 39.2752C 71.1079 37.7916 66.1879 36.3079 61.0823 34.5462C 60.0611 34.1753 59.1328 33.8044 58.1117 33.5262L 58.0189 33.5262C 54.4913 32.228 50.8709 30.9299 47.1577 30.2808C 46.6007 30.1881 45.9509 29.6317 45.5796 29.3536C 44.9298 29.8172 44.4657 29.539 43.9087 29.1681C 43.723 29.0754 43.4445 28.8899 43.2589 28.7972C 38.7102 27.2209 35.1826 24.0682 33.1404 19.3392C 32.2121 17.5774 31.2838 15.8157 30.5411 14.1466C 30.3555 13.5903 29.9841 13.1266 29.6128 12.663C 29.0558 11.8285 28.406 10.994 28.4989 9.78852C 26.7351 8.11947 25.714 6.07952 24.6928 4.03956C 24.1359 2.92686 23.6717 1.90689 23.0219 0.886909C 22.3721 0.0523818 21.9079 -0.318525 21.0724 0.330552C 15.4098 4.03956 9.28301 6.54314 3.15622 9.13945C 1.8566 9.51035 0.649811 10.1594 0 11.7358C 1.11396 12.663 1.94943 13.8684 2.69207 15.1666C 3.06339 15.8157 3.52754 16.4647 3.89887 17.0211C 6.59094 20.6374 9.74716 23.5119 12.9034 26.3864Z" transform="translate(197 145)" fill="white"/>
<path id="Intersect 2" d="M 0.928302 0.724878C 0.556981 1.09578 0.0928415 1.74485 0.185672 2.48665C 0.278502 7.03019 0.18566 11.3883 0 15.9318C 1.57811 17.4154 3.52754 17.7863 5.47698 18.0645C 6.31245 18.2499 7.24077 18.3427 8.07624 18.6209C 8.63322 18.7136 9.00453 18.3427 9.28302 17.879C 9.37585 17.3227 9.19019 16.7663 8.9117 16.21C 8.63321 15.2827 8.54039 14.5409 9.00454 13.521C 9.46869 12.501 9.56152 11.5737 8.9117 10.7392C 6.96227 8.5138 6.12679 5.73203 6.86943 2.6721C 6.96226 2.11575 6.86945 1.37395 6.68379 0.817594C 5.01284 -0.109658 2.13509 -0.387825 0.928302 0.724878Z" transform="translate(272.657 183.365)" fill="#353C3F"/>
</g>
<path id="Intersect 3" d="M 2.89452 47.0696C 2.60746 46.6924 2.3204 46.3151 2.22471 45.7493C 2.03334 45.1835 1.93765 44.7119 1.74628 44.2404C 1.84197 44.1461 1.93765 44.0518 2.03334 43.9575C 4.23413 42.3543 13.3244 43.2973 17.6303 43.9575L 17.7259 43.9575C 18.013 44.1461 18.3957 44.2404 18.8742 44.2404C 21.362 44.429 23.9456 44.6176 26.242 44.6176C 27.3903 44.6176 28.5385 44.2404 29.304 43.4859C 30.835 42.3543 31.2177 41.2226 30.2609 39.4307C 28.9213 36.9788 27.5817 34.4325 26.9118 31.9805C 27.1989 31.6976 27.2946 31.3203 27.2946 30.8488C 27.2946 30.6602 27.3903 30.4716 27.486 30.1887C 27.8687 28.6798 28.8256 27.7367 30.5479 27.5481C 31.6962 27.3595 32.1746 28.2082 32.653 29.057C 32.7487 29.1513 32.8444 29.3399 32.8444 29.4342L 33.9927 31.6976C 33.9927 32.0748 33.9927 32.452 34.3754 32.452C 34.5668 33.3951 34.9495 34.1496 35.715 34.904C 36.0978 35.6585 36.8632 36.4129 37.6287 36.7901L 38.9684 38.1104C 39.1597 38.2991 39.3511 38.4877 39.3511 38.8649C 39.7338 39.9966 40.308 40.9397 41.2648 41.8827C 41.6476 43.0144 42.6044 43.9575 43.5613 44.9005C 45.0923 46.4094 46.6233 45.8436 48.1543 45.3721L 48.4413 45.2778C 48.537 45.2778 48.7284 45.1835 48.8241 45.1835C 49.3982 45.3721 49.9723 45.1835 50.5464 44.6176C 50.9292 44.6176 51.1206 44.429 51.3119 44.2404C 53.8955 43.7689 56.3833 42.6372 58.7755 41.5998L 58.8712 41.5055L 59.0625 41.4112C 59.2539 41.3169 59.541 41.2226 59.7323 41.1283C 60.1151 41.1283 60.4978 41.1283 60.4978 40.751C 60.8806 40.5624 61.2633 40.4681 61.5504 40.2795C 61.9331 40.0909 62.2202 39.9966 62.6029 39.808C 64.3253 38.9592 66.0477 38.0161 67.77 37.1674C 73.1285 34.3382 78.4869 31.6033 84.3238 29.5285L 84.6108 29.4342L 84.7065 29.4342L 84.8022 29.4342L 85.2807 29.2456C 87.003 28.5855 88.9167 27.831 90.352 26.7936C 91.883 26.0392 93.0313 24.9075 93.6054 23.5872C 95.7105 19.1548 97.8156 14.8166 99.825 10.5728C 101.165 8.40378 102.313 6.14043 103.652 3.68845C 104.035 2.934 104.418 2.17953 104.801 1.42508C 105.566 -0.0838312 106.523 -0.272442 107.863 0.293399C 108.82 0.670626 109.776 1.14215 110.733 1.61369C 111.69 2.08522 112.647 2.55677 113.604 2.93399C 118.675 5.19736 123.077 8.12087 127 12.3647L 126.235 13.1191C 123.173 17.3629 119.632 21.5124 116.187 25.379C 115.231 26.5107 114.178 27.7367 113.221 28.9627C 112.169 30.3773 111.02 31.7919 109.776 33.2065C 109.298 33.8666 108.724 34.4325 108.245 35.0926C 105.566 38.4877 102.887 41.6941 99.2509 44.3347C 92.4571 49.1443 84.8979 51.9736 76.9559 53.6711C 76.3818 53.8597 75.8077 53.954 75.1379 54.0483C 73.5112 54.3312 71.9802 54.6141 70.5449 55.7458C 70.3535 55.18 69.9708 55.18 69.3967 55.3686C 68.0571 55.7458 66.8131 56.1231 65.5692 56.5003L 65.4735 56.5003C 64.2296 56.8775 62.9857 57.2547 61.6461 57.632C 59.541 58.2921 57.5316 58.858 55.5221 59.5181C 48.1543 61.8758 40.7864 64.1391 33.0358 65.1765C 28.1558 65.7424 23.7542 67.4399 20.0224 70.7406C 18.1087 72.6268 16.0036 74.3243 12.8459 73.9471C 10.5494 71.6837 10.7408 71.4951 12.1761 69.6089L 12.1761 69.5146C 15.2381 66.874 18.5871 64.3277 21.8405 61.8758C 21.5534 61.3099 21.2663 61.4042 20.9793 61.4042C 20.8836 61.4042 20.7879 61.4985 20.6922 61.4985C 19.0655 61.7815 17.4389 61.9701 15.7165 62.1587C 14.0898 62.3473 12.4632 62.5359 10.7408 62.8188C 10.1667 63.0075 9.97533 63.1961 9.97533 63.5733C 9.40121 63.0075 8.44434 63.1961 7.87022 63.3847C 6.14786 63.9505 4.61688 63.1961 3.56432 61.8758C 2.60746 60.5555 2.99021 59.0466 4.52119 58.6693C 4.61688 58.6693 4.61688 58.6693 4.71256 58.575L 4.80825 58.575C 5.38237 58.3864 6.14786 58.1978 6.62629 57.7263C 6.81767 57.7263 7.00904 57.8206 7.10473 57.8206C 7.2961 57.9149 7.48747 58.0092 7.58316 57.9149C 8.63571 57.7263 9.68827 57.5377 10.7408 57.349C 12.4632 57.0661 14.1855 56.6889 15.9079 56.5946C 15.2381 55.5572 14.3769 55.6515 13.7071 55.6515C 13.6114 55.6515 13.5157 55.6515 13.42 55.6515C 12.0804 55.4629 10.7408 55.2743 9.40121 55.18C 8.06159 54.9914 6.81767 54.8971 5.38237 54.7084C 4.99962 54.7084 4.61688 54.7085 4.61688 55.0857C 4.23413 54.7085 3.85138 54.6142 3.46864 54.6142C 3.37295 54.6142 3.27726 54.6142 3.18158 54.6142C 3.08589 54.6142 2.99021 54.6141 2.89452 54.5198C 0.789414 54.3312 -0.167452 53.3882 0.0239216 51.3134C 0.119608 51.2191 0.215295 51.2191 0.310981 51.1248L 0.598041 50.9362L 0.693728 50.8419C 2.12903 49.9931 3.56432 49.1443 5.66943 49.5216C 6.53061 49.6159 7.48747 49.6159 8.44434 49.6159C 8.92277 49.6159 9.40121 49.6159 9.97533 49.6159C 10.6451 49.7102 11.3149 49.7102 11.9847 49.7102C 12.6545 49.7102 13.3244 49.7102 13.9942 49.8045C 12.6545 48.8614 11.3149 48.6728 9.87964 48.8614C 9.20983 48.7671 8.54003 48.6728 7.96591 48.4842C 6.91336 48.2013 5.95649 48.0127 4.90394 48.107C 4.80825 48.107 4.61688 48.107 4.52119 48.107L 3.94707 48.0127C 4.23413 47.7297 3.56432 47.4468 2.89452 47.0696Z" transform="translate(-1 147)" fill="white"/>
<path id="Vector" d="M 134.3 166C 133.4 165.1 133.2 164.3 133.4 163.1C 134 161.7 133.4 160.5 132.3 159.7C 130.6 158.6 129.7 156.6 129.1 154.5C 128.1 150.7 126.4 147.3 124.7 143.9C 124.4 143.2 124 142.6 123.7 141.9C 123.4 141.9 123.2 142 123 142.2C 120.6 135.4 120.2 115.7 120.3 104.8C 120.5 104.2 120.5 103.6 120.5 103.1C 119.9 100.8 118.8 98.5 117.6 96.2C 116.5 93.9 115.6 91.6 117 89C 117.3 88.1 117.3 87.3 117 86.4C 116.9 86 116.7 85.6 116.6 85.3C 116.5 84.9 116.3 84.6 116.2 84.2C 114.5 81.3 113.6 78.5 115.6 75.3C 115.4 73 114.5 70.9 113.5 68.8C 112.9 67.5 112.3 66.1 111.9 64.7C 111.6 63.6 111.6 63 112.8 62.7C 119.7 60.4 126 57.3 132.3 53.5C 133.7 52.6 135.2 52.1 136.6 52.6C 139.8 49.7 139.8 48.9 137.7 45.2C 134.3 38.9 130.8 32.6 127.4 26.6C 124.2 20.9 120.2 15.7 115.1 11.7C 109.1 7.1 102.8 3.1 95.9 0L 95.6 0.300003C 96.7 2.3 96.2 4.3 95.6 6.3C 93.9 12.3 91.6 18.3 87 22.9C 78.7 31.2 64.9 29.5 58.9 19.5C 57.2 16.6 56 13.5 55.2 10.3L 44.9 8.3C 39.7 10.9 35.1 14.3 30.5 17.7C 27.1 20.3 24.2 23.4 22.5 27.1C 21.8 28.5 21.1 30 20.3 31.5C 19.6 33 18.9 34.5 18.1 35.9C 17.9 36.3 17.7 36.8 17.5 37.2C 15.7 41 14 44.8 10.6 47.6C 8.6 49.6 8.9 51.6 11.5 52.7C 13.8 53.8 14.9 55.3 14.1 57.8C 19.8 57.5 25.6 58.9 31 60.7C 32 61.1 33.1 61.5 34.2 61.8C 35.3 62.2 36.4 62.5 37.4 62.9C 38.8 63.5 39.4 64.3 38.8 66C 37.7 69.4 36.5 72.9 35.6 76.6C 35.7 76.8 35.7 76.9 35.8 77.1C 36 77.9 36.3 78.7 36.8 79.4C 37.4 80.5 37.4 82 36.5 83.4C 34.7 86.2 33.5 89.1 32.2 92C 31.6 93.3 31.1 94.7 30.4 96C 30.4 96.3 30.5 96.6 30.6 96.9C 30.3 96.9 30.1 96.9 29.9 96.9C 27.9 96.9 24.7 119.9 23.4 131.4L 23.4 131.6C 23.3 131.6 23.1 131.6 22.9 131.7C 22.4 132.6 21.8 133.6 21.3 134.5C 18.1 140.1 14.9 145.6 13.2 152C 12.3 155.4 10.6 158.6 7.5 160.9C 6.1 162 5.2 163.5 5.5 165.5C 5.5 166.9 5.2 168.1 4.6 169.2C 4.1 170.2 3.6 171.1 3.1 172C 2.1 173.8 1.1 175.7 0.3 177.8C 0.2 178.1 0.0999969 178.5 -3.05176e-06 178.8C 12.7 186.4 26.7 192.2 41.6 195.6C 45 193 48.4 190.5 51.7 188.1C 51.6 188 51.6 187.9 51.5 187.9C 52 187.5 53.7 186.5 55.7 185.5C 55.7 185.5 55.7 185.5 55.7 185.6C 57.1 185.2 58.3 184.6 59.5 183.9C 60.2 183.5 61 183.1 61.7 182.7C 61.8 182.6 61.8 182.5 61.9 182.4L 68.4 180.4C 68.5 180.3 68.6 180.3 68.7 180.2C 68.8 180.2 68.8 180.3 68.9 180.4C 69.5 180.2 70.1 180.2 70.8 180.1C 71.4 180 72 180 72.7 179.8C 72.7 179.7 72.7 179.6 72.7 179.5C 75.8 179.4 79.7 180 82 180.4L 81.9 180.3C 83.3 180.8 84.7 181.6 86 182.3C 92.2 186.4 97.7 191 102.3 196.7C 116.2 194 129.4 189.3 141.6 182.9C 141.2 180.7 140.6 178.6 139.7 176.5L 139.7 176.2C 139.5 172.6 137.2 169.2 134.3 166Z" transform="translate(85.925 96)" fill="#C32127"/>
<path id="Intersect 4" d="M 8.50625 37.627C 5.10625 36.727 3.30624 33.9271 2.20624 30.7271C 1.60624 29.3271 1.10625 27.6271 0.506247 25.8271C -0.393753 23.8271 -0.0937439 22.1271 1.40626 20.7271C 1.80626 20.9271 2.20625 21.0271 2.50625 21.2271C 3.30625 21.5271 4.00625 21.8271 4.80625 22.4271C 5.70625 23.0271 6.50625 22.7271 6.50625 21.5271C 6.80625 19.6271 7.30624 17.727 7.70624 15.727C 8.20624 13.627 8.80625 11.427 9.10625 9.22705C 9.40625 7.82705 10.0063 6.92705 11.4063 6.62705C 13.1063 6.02705 14.6063 5.22705 14.6063 3.22705C 14.6063 1.52705 15.7062 0.927052 17.2062 0.627052C 21.8062 0.0270517 26.4063 -0.272948 30.1063 0.327053C 33.3063 0.927053 36.1062 1.72705 39.0062 3.22705C 41.9062 4.62705 42.4062 6.12705 42.2062 9.22705C 41.9062 11.227 42.5063 13.527 43.6063 15.227C 44.5063 16.327 45.0063 17.5271 45.3063 18.9271C 45.3063 19.8271 45.6063 20.6271 46.4063 20.3271C 46.9063 20.2271 47.4063 20.2271 47.8063 20.2271C 48.7063 20.2271 49.6063 20.2271 50.4063 19.4271C 52.4063 22.0271 51.8062 24.8271 50.7062 27.7271L 48.1063 34.627C 47.8063 35.527 47.2063 36.327 46.1063 36.627C 46.0063 36.527 46.0063 36.3271 45.9063 36.2271C 45.8063 35.9271 45.8062 35.5271 45.2062 35.5271C 44.8062 35.5271 44.7062 35.8271 44.5062 36.2271C 44.4062 36.3271 44.4063 36.527 44.3063 36.627C 43.8063 38.227 43.0063 39.7271 42.1063 41.2271C 41.9063 41.6271 41.7062 41.9271 41.5062 42.3271C 39.5062 45.7271 34.0062 48.3271 30.0062 47.4271C 28.4062 46.9271 27.0063 47.1271 25.4063 47.4271L 25.1063 47.4271C 21.9063 48.3271 19.1062 47.127 16.8062 45.127C 14.5062 42.827 12.5062 40.5271 10.5062 37.9271C 10.0062 37.3271 9.40625 36.727 8.50625 37.627ZM 7.10625 62.4271L 7.10625 64.127C 8.00625 67.227 9.10625 70.427 10.8062 73.327C 16.8062 83.327 30.6063 85.0271 38.9063 76.7271C 43.5063 72.1271 45.8062 66.427 47.5062 60.127C 47.6062 59.927 47.6062 59.7271 47.7062 59.4271C 48.2062 57.6271 48.8062 55.827 47.5062 54.127L 47.8063 53.8271C 47.8063 53.2271 47.5063 53.2271 46.9063 53.2271C 44.6063 52.9271 43.2063 51.5271 42.3063 49.5271C 40.9063 50.6271 39.7063 52.1271 38.6063 53.8271C 36.9063 56.7271 34.3063 57.827 31.1063 58.127C 29.4063 58.327 27.5062 58.2271 25.7062 58.2271C 24.8062 58.2271 23.9063 58.127 23.1063 58.127C 21.4063 58.127 19.9062 57.2271 18.8062 55.8271C 17.7062 54.4271 16.5063 52.9271 15.1063 51.8271C 13.4063 50.4271 12.2062 48.7271 11.7062 46.4271C 11.6062 46.2271 11.5062 46.0271 11.5062 45.8271C 11.4062 45.4271 11.2063 44.9271 10.9063 44.7271L 10.9063 47.3271C 11.8063 50.7271 11.2062 54.2271 9.20624 57.0271C 7.40624 58.7271 6.80625 60.4271 7.10625 62.4271Z" transform="translate(134.419 41.573)" fill="white"/>
<path id="Union 3" d="M 55.65 32.6941C 56.55 32.6941 57.45 32.6941 58.25 31.8941C 58.85 29.8941 59.15 28.1941 57.65 26.7941C 57.35 26.4941 57.35 25.8941 57.35 25.3941C 58.25 21.3941 56.45 17.6941 54.75 14.1941C 53.05 10.4941 51.35 6.79411 47.25 5.29411C 42.65 3.59411 38.05 1.89411 33.45 0.394112C 32.05 -0.205888 30.25 -0.205888 28.85 0.994112C 26.85 2.69411 24.85 2.99411 22.25 2.69411C 19.65 2.39411 19.05 2.99411 18.25 5.29411C 17.35 7.59411 16.25 9.59411 14.25 10.9941C 13.15 11.8941 12.55 12.9941 11.95 14.0941C 11.55 15.2941 11.05 16.4941 10.55 17.7941C 9.75 19.8941 8.95 21.9941 8.25 24.0941C 7.65 25.4941 7.34999 26.9941 7.94999 28.6941C 8.24999 30.0941 8.55 31.5941 8.55 33.2941C 8.95 33.4941 9.35001 33.5941 9.65001 33.7941C 10.45 34.0941 11.15 34.3941 11.95 34.9941C 12.85 35.5941 13.65 35.2941 13.65 34.0941C 13.95 32.1941 14.45 30.2941 14.85 28.2941C 15.35 26.1941 15.95 23.9941 16.25 21.7941C 16.55 20.3941 17.15 19.4941 18.55 19.1941C 20.25 18.5941 21.75 17.7941 21.75 15.7941C 21.75 14.0941 22.85 13.4941 24.35 13.1941C 28.95 12.5941 33.55 12.2941 37.85 12.5941C 41.05 13.1941 43.85 13.9941 46.75 15.4941C 49.65 16.9941 50.15 18.3941 49.95 21.4941C 49.65 23.4941 50.25 25.7941 51.35 27.4941C 52.25 28.5941 52.75 29.7941 53.05 31.1941C 53.05 32.0941 53.35 32.8941 54.15 32.5941C 54.75 32.6941 55.25 32.6941 55.65 32.6941ZM 16.05 69.6941C 18.05 66.7941 18.65 63.3941 17.75 59.9941C 16.35 60.2941 15.15 61.0941 14.55 63.0941C 13.45 65.0941 12.25 66.7941 9.94999 67.6941C 9.04999 67.9941 8.54999 68.7941 7.94999 69.6941C 7.04999 70.7941 6.24999 71.9941 5.44999 73.1941C 4.94999 73.8941 4.44999 74.6941 3.94999 75.3941C 3.84999 76.0941 3.64999 76.8941 3.44999 77.6941C 3.04999 79.2941 2.65 80.9941 3.05 82.5941C 3.65 85.1941 2.74999 87.4941 1.94999 89.7941C 1.84999 90.1941 1.55 90.6941 1.35 91.1941C 1.15 91.6941 0.949997 92.1941 0.749997 92.5941C -1.25 97.9941 0.749997 104.594 6.75 106.594C 6.85 106.594 6.84999 106.594 6.94999 106.694C 7.74999 106.994 8.25 107.094 9.05 106.394C 9.65 105.494 9.35 104.994 8.75 104.094C 7.85 102.694 7.84999 101.494 8.44999 100.094C 9.34999 97.4941 9.55 94.6941 9.05 91.7941C 8.95 91.2941 8.85001 90.7941 8.65001 90.2941C 8.35001 89.1941 8.04999 88.0941 8.44999 86.8941C 8.94999 84.6941 10.15 82.7941 11.25 80.8941C 11.85 79.7941 12.55 78.6941 13.05 77.4941C 13.15 77.4941 13.35 77.3941 13.45 77.3941C 13.55 77.2941 13.75 77.2941 13.85 77.2941L 13.85 75.5941C 14.05 73.0941 14.65 71.3941 16.05 69.6941ZM 49.35 61.9941C 47.95 63.0941 46.75 64.5941 45.65 66.2941C 43.95 69.1941 41.35 70.2941 38.15 70.5941C 36.45 70.7941 34.55 70.6941 32.75 70.6941C 31.85 70.6941 30.95 70.5941 30.15 70.5941C 28.45 70.5941 26.95 69.6941 25.85 68.2941C 24.75 66.8941 23.55 65.3941 22.15 64.2941C 20.45 62.8941 19.25 61.1941 18.75 58.8941C 18.75 58.7941 18.65 58.6941 18.65 58.5941C 18.65 58.4941 18.55 58.3941 18.55 58.1941C 18.45 57.7941 18.25 57.2941 17.95 57.0941C 17.05 54.7941 16.25 52.4941 15.95 50.1941C 16.85 49.2941 17.35 49.8941 17.95 50.7941C 19.95 53.3941 21.95 55.6941 24.25 57.9941C 26.55 59.9941 29.45 61.0941 32.55 60.2941L 32.85 60.2941C 34.45 59.9941 35.85 59.7941 37.45 60.2941C 41.45 61.1941 46.95 58.5941 48.95 55.1941C 49.15 54.7941 49.35 54.4941 49.55 54.0941C 50.45 52.4941 51.35 51.0941 51.75 49.4941C 51.85 49.2941 51.85 49.1941 51.95 49.0941C 52.05 48.6941 52.25 48.3941 52.65 48.3941C 53.25 48.3941 53.25 48.7941 53.35 49.0941C 53.35 49.2941 53.45 49.3941 53.55 49.4941C 53.65 53.9941 52.25 58.2941 49.35 61.9941Z" transform="translate(127.175 28.906)" fill="#353C3F"/>
</g>
</g>
</g>
</g>
<path id="?" d="M 6.51803 24.5793C 6.51803 22.3498 6.76263 20.5743 7.25184 19.2526C 7.74106 17.9308 8.63315 16.633 9.92812 15.359C 11.2375 14.0692 12.108 13.0261 12.5396 12.2299C 12.9713 11.4178 13.1871 10.5658 13.1871 9.67405C 13.1871 6.98283 12.0648 5.63722 9.82021 5.63722C 8.75545 5.63722 7.89933 6.00348 7.25184 6.736C 6.61875 7.4526 6.28781 8.44787 6.25903 9.72182L 0 9.72182C 0.0287772 6.68027 0.913675 4.29958 2.65469 2.57975C 4.4101 0.859916 6.7986 0 9.82021 0C 12.8706 0 15.2375 0.820105 16.921 2.46031C 18.6044 4.0846 19.4462 6.38567 19.4462 9.36352C 19.4462 10.7171 19.1728 11.999 18.626 13.2093C 18.0793 14.4036 17.1224 15.7333 15.7555 17.1983L 14.0073 19.0376C 12.9138 20.2001 12.2878 21.5616 12.1296 23.1222L 12.0432 24.5793L 6.51803 24.5793ZM 5.89212 31.9124C 5.89212 30.8455 6.21587 29.9696 6.86335 29.2849C 7.52523 28.5842 8.36696 28.2339 9.38855 28.2339C 10.4101 28.2339 11.2447 28.5842 11.8922 29.2849C 12.554 29.9696 12.885 30.8455 12.885 31.9124C 12.885 32.9634 12.5612 33.8313 11.9137 34.5161C 11.2806 35.2008 10.4389 35.5432 9.38855 35.5432C 8.33818 35.5432 7.48926 35.2008 6.84177 34.5161C 6.20867 33.8313 5.89212 32.9634 5.89212 31.9124Z" transform="matrix(0.866025 -0.5 0.5 0.866025 55 38.7231)" fill="white"/>
<path id="?_2" d="M 6.51803 24.5793C 6.51803 22.3498 6.76263 20.5743 7.25184 19.2526C 7.74106 17.9308 8.63315 16.633 9.92812 15.359C 11.2375 14.0692 12.108 13.0261 12.5396 12.2299C 12.9713 11.4178 13.1871 10.5658 13.1871 9.67405C 13.1871 6.98283 12.0648 5.63722 9.82021 5.63722C 8.75545 5.63722 7.89933 6.00348 7.25184 6.736C 6.61875 7.4526 6.28781 8.44787 6.25903 9.72182L 0 9.72182C 0.0287772 6.68027 0.913675 4.29958 2.65469 2.57975C 4.4101 0.859916 6.7986 0 9.82021 0C 12.8706 0 15.2375 0.820105 16.921 2.46031C 18.6044 4.0846 19.4462 6.38567 19.4462 9.36352C 19.4462 10.7171 19.1728 11.999 18.626 13.2093C 18.0793 14.4036 17.1224 15.7333 15.7555 17.1983L 14.0073 19.0376C 12.9138 20.2001 12.2878 21.5616 12.1296 23.1222L 12.0432 24.5793L 6.51803 24.5793ZM 5.89212 31.9124C 5.89212 30.8455 6.21587 29.9696 6.86335 29.2849C 7.52523 28.5842 8.36696 28.2339 9.38855 28.2339C 10.4101 28.2339 11.2447 28.5842 11.8922 29.2849C 12.554 29.9696 12.885 30.8455 12.885 31.9124C 12.885 32.9634 12.5612 33.8313 11.9137 34.5161C 11.2806 35.2008 10.4389 35.5432 9.38855 35.5432C 8.33818 35.5432 7.48926 35.2008 6.84177 34.5161C 6.20867 33.8313 5.89212 32.9634 5.89212 31.9124Z" transform="matrix(0.965926 0.258819 -0.258819 0.965926 121.514 0.56958)" fill="white"/>
<path id="?_3" d="M 6.51803 24.5793C 6.51803 22.3498 6.76263 20.5743 7.25184 19.2526C 7.74106 17.9308 8.63315 16.633 9.92812 15.359C 11.2375 14.0692 12.108 13.0261 12.5396 12.2299C 12.9713 11.4178 13.1871 10.5658 13.1871 9.67405C 13.1871 6.98283 12.0648 5.63722 9.82021 5.63722C 8.75545 5.63722 7.89933 6.00348 7.25184 6.736C 6.61875 7.4526 6.28781 8.44787 6.25903 9.72182L 0 9.72182C 0.0287772 6.68027 0.913675 4.29958 2.65469 2.57975C 4.4101 0.859916 6.7986 0 9.82021 0C 12.8706 0 15.2375 0.820105 16.921 2.46031C 18.6044 4.0846 19.4462 6.38567 19.4462 9.36352C 19.4462 10.7171 19.1728 11.999 18.626 13.2093C 18.0793 14.4036 17.1224 15.7333 15.7555 17.1983L 14.0073 19.0376C 12.9138 20.2001 12.2878 21.5616 12.1296 23.1222L 12.0432 24.5793L 6.51803 24.5793ZM 5.89212 31.9124C 5.89212 30.8455 6.21587 29.9696 6.86335 29.2849C 7.52523 28.5842 8.36696 28.2339 9.38855 28.2339C 10.4101 28.2339 11.2447 28.5842 11.8922 29.2849C 12.554 29.9696 12.885 30.8455 12.885 31.9124C 12.885 32.9634 12.5612 33.8313 11.9137 34.5161C 11.2806 35.2008 10.4389 35.5432 9.38855 35.5432C 8.33818 35.5432 7.48926 35.2008 6.84177 34.5161C 6.20867 33.8313 5.89212 32.9634 5.89212 31.9124Z" transform="matrix(0.965926 0.258819 -0.258819 0.965926 187.199 1)" fill="white"/>
<path id="?_4" d="M 6.51803 24.5793C 6.51803 22.3498 6.76263 20.5743 7.25184 19.2526C 7.74106 17.9308 8.63315 16.633 9.92812 15.359C 11.2375 14.0692 12.108 13.0261 12.5396 12.2299C 12.9713 11.4178 13.1871 10.5658 13.1871 9.67405C 13.1871 6.98283 12.0648 5.63722 9.82021 5.63722C 8.75545 5.63722 7.89933 6.00348 7.25184 6.736C 6.61875 7.4526 6.28781 8.44787 6.25903 9.72182L 0 9.72182C 0.0287772 6.68027 0.913675 4.29958 2.65469 2.57975C 4.4101 0.859916 6.7986 0 9.82021 0C 12.8706 0 15.2375 0.820105 16.921 2.46031C 18.6044 4.0846 19.4462 6.38567 19.4462 9.36352C 19.4462 10.7171 19.1728 11.999 18.626 13.2093C 18.0793 14.4036 17.1224 15.7333 15.7555 17.1983L 14.0073 19.0376C 12.9138 20.2001 12.2878 21.5616 12.1296 23.1222L 12.0432 24.5793L 6.51803 24.5793ZM 5.89212 31.9124C 5.89212 30.8455 6.21587 29.9696 6.86335 29.2849C 7.52523 28.5842 8.36696 28.2339 9.38855 28.2339C 10.4101 28.2339 11.2447 28.5842 11.8922 29.2849C 12.554 29.9696 12.885 30.8455 12.885 31.9124C 12.885 32.9634 12.5612 33.8313 11.9137 34.5161C 11.2806 35.2008 10.4389 35.5432 9.38855 35.5432C 8.33818 35.5432 7.48926 35.2008 6.84177 34.5161C 6.20867 33.8313 5.89212 32.9634 5.89212 31.9124Z" transform="matrix(0.707107 0.707107 -0.707107 0.707107 238.682 49.241)" fill="white"/>
</g>
</g>
<defs>
<linearGradient id="paint0_linear" x2="1" gradientUnits="userSpaceOnUse" gradientTransform="matrix(0 -130.37 130.37 0 79.8151 195)">
<stop stop-color="#FF8B00"/>
<stop offset="1" stop-color="#E44332"/>
</linearGradient>
<clipPath id="clip0">
<rect width="321" height="300" fill="white"/>
</clipPath>
</defs>
</svg>
